# xmcd
# Track frame offsets:
# 182
# 12789
# 25710
# 39668
# 52673
# 65418
# 78314
# 92051
# 104406
# 117408
# 128491
# 141361
# 154955
# 168851
# 182022
# 194905
# 209402
# 223927
# 236778
# 250922
# 263997
# 276565
# 288128
# 302279
#
# Disc length: 4201 seconds
# Revision: 0
# Processed by: cddbd v1.5.1PL2 Copyright (c) Steve Scherf et al.
# Submitted via: VisiTrax 2.9.10.228 - For more info visit www.synapsa.com
#
DISCID=5d106718
DTITLE=Ivory Joe Hunter - The Chronological Ivory Joe Hunter 1947-1950
DYEAR=1900
DGENRE=
TTITLE0=Stop Rockin' That Train
TTITLE1=Siesta With Sonny
TTITLE2=Waiting In Vain
TTITLE3=It's You Just You
TTITLE4=That's The Gal For Me
TTITLE5=Changing Blues
TTITLE6=Guess Who
TTITLE7=Too Late
TTITLE8=Please Don't Cry Anymore
TTITLE9=I Got Your Water On
TTITLE10=I Quit My Pretty Mama
TTITLE11=Lying Woman Blues
TTITLE12=I Have No Reason To Complain
TTITLE13=Jealous Heart
TTITLE14=If I Give You My Love
TTITLE15=I Almost Lost My Mind
TTITLE16=I Need You So
TTITLE17=S. P. Blues
TTITLE18=Let Me Dream
TTITLE19=Leave Her Alone
TTITLE20=Why Fool Yourself
TTITLE21=Gimme A Pound O' Ground Round
TTITLE22=I Can't Get You Off My Mind
TTITLE23=I Found My Baby
EXTD=
EXTT0=
EXTT1=
EXTT2=
EXTT3=
EXTT4=
EXTT5=
EXTT6=
EXTT7=
EXTT8=
EXTT9=
EXTT10=
EXTT11=
EXTT12=
EXTT13=
EXTT14=
EXTT15=
EXTT16=
EXTT17=
EXTT18=
EXTT19=
EXTT20=
EXTT21=
EXTT22=
EXTT23=
PLAYORDER=
